<svg width="119.1" height="66.702" viewBox="0 0 119.1 66.702"
    xmlns="http://www.w3.org/2000/svg">
    <g id="svgGroup" stroke-linecap="round" fill-rule="evenodd" font-size="9pt" stroke="#000" stroke-width="0.25mm" fill="none" style="stroke:#000;stroke-width:0.25mm;fill:none">
        <path d="M 9.8 60.302 L 9.8 6.302 A 16.515 16.515 0 0 0 6.923 5.032 Q 4.036 4.05 0 3.602 L 0.5 0.002 L 26.2 0.002 A 43.688 43.688 0 0 1 34.558 0.728 Q 47.942 3.35 49.008 15.439 A 24.632 24.632 0 0 1 49.1 17.602 Q 49.1 24.202 45.75 28.302 Q 42.94 31.741 37.491 33.492 A 30.016 30.016 0 0 1 35.3 34.102 A 11.005 11.005 0 0 1 37.749 36.234 A 13.622 13.622 0 0 1 38.65 37.402 A 24.012 24.012 0 0 1 39.82 39.29 Q 40.669 40.802 41.5 42.702 L 49.4 60.302 A 12.952 12.952 0 0 0 52.11 61.651 Q 54.509 62.536 57.8 62.902 L 57.2 66.702 L 42.1 66.702 L 33.4 44.402 Q 32.092 41.094 31.051 39.325 A 10.907 10.907 0 0 0 30.45 38.402 Q 29.2 36.702 27.2 36.152 A 10.797 10.797 0 0 0 25.954 35.899 Q 24.611 35.697 22.62 35.632 A 62.544 62.544 0 0 0 20.6 35.602 L 18.6 35.602 L 18.6 60.302 A 12.739 12.739 0 0 0 20.046 61.042 Q 21.063 61.486 22.3 61.852 A 23.564 23.564 0 0 0 23.831 62.244 Q 25.688 62.658 28.3 63.002 L 27.8 66.702 L 0.1 66.702 L 0.6 63.002 A 35.411 35.411 0 0 0 4.304 62.367 Q 7.569 61.614 9.8 60.302 Z M 71.1 60.302 L 71.1 6.302 A 16.515 16.515 0 0 0 68.223 5.032 Q 65.336 4.05 61.3 3.602 L 61.8 0.002 L 87.5 0.002 A 43.688 43.688 0 0 1 95.858 0.728 Q 109.242 3.35 110.308 15.439 A 24.632 24.632 0 0 1 110.4 17.602 Q 110.4 24.202 107.05 28.302 Q 104.24 31.741 98.791 33.492 A 30.016 30.016 0 0 1 96.6 34.102 A 11.005 11.005 0 0 1 99.049 36.234 A 13.622 13.622 0 0 1 99.95 37.402 A 24.012 24.012 0 0 1 101.12 39.29 Q 101.969 40.802 102.8 42.702 L 110.7 60.302 A 12.952 12.952 0 0 0 113.41 61.651 Q 115.809 62.536 119.1 62.902 L 118.5 66.702 L 103.4 66.702 L 94.7 44.402 Q 93.392 41.094 92.351 39.325 A 10.907 10.907 0 0 0 91.75 38.402 Q 90.5 36.702 88.5 36.152 A 10.797 10.797 0 0 0 87.254 35.899 Q 85.911 35.697 83.92 35.632 A 62.544 62.544 0 0 0 81.9 35.602 L 79.9 35.602 L 79.9 60.302 A 12.739 12.739 0 0 0 81.346 61.042 Q 82.363 61.486 83.6 61.852 A 23.564 23.564 0 0 0 85.131 62.244 Q 86.988 62.658 89.6 63.002 L 89.1 66.702 L 61.4 66.702 L 61.9 63.002 A 35.411 35.411 0 0 0 65.604 62.367 Q 68.869 61.614 71.1 60.302 Z M 18.6 4.802 L 18.6 31.002 L 21.7 31.002 Q 31.1 31.002 35.6 27.652 A 10.772 10.772 0 0 0 39.724 21.094 A 17.074 17.074 0 0 0 40.1 17.402 A 19.561 19.561 0 0 0 39.753 13.594 Q 39.312 11.375 38.311 9.669 A 9.971 9.971 0 0 0 36.55 7.452 Q 33 4.102 26.1 4.102 Q 22.7 4.102 18.6 4.802 Z M 79.9 4.802 L 79.9 31.002 L 83 31.002 Q 92.4 31.002 96.9 27.652 A 10.772 10.772 0 0 0 101.024 21.094 A 17.074 17.074 0 0 0 101.4 17.402 A 19.561 19.561 0 0 0 101.053 13.594 Q 100.612 11.375 99.611 9.669 A 9.971 9.971 0 0 0 97.85 7.452 Q 94.3 4.102 87.4 4.102 Q 84 4.102 79.9 4.802 Z" vector-effect="non-scaling-stroke"/>
    </g>
</svg>
