<?xml version="1.0" standalone="no"?>
<!DOCTYPE svg PUBLIC "-//W3C//DTD SVG 20010904//EN"
 "http://www.w3.org/TR/2001/REC-SVG-20010904/DTD/svg10.dtd">
<svg version="1.0" xmlns="http://www.w3.org/2000/svg"
 width="512.000000pt" height="512.000000pt" viewBox="0 0 512.000000 512.000000"
 preserveAspectRatio="xMidYMid meet">
<metadata>
Created by potrace 1.11, written by Peter Selinger 2001-2013
</metadata>
<g transform="translate(0.000000,512.000000) scale(0.100000,-0.100000)"
fill="#000000" stroke="none">
<path d="M984 3261 c-2 -2 -4 -14 -4 -26 0 -19 7 -23 50 -29 67 -9 95 -23 111
-55 19 -35 27 -1357 9 -1439 -14 -64 -36 -81 -114 -89 -52 -5 -56 -8 -56 -32
l0 -26 372 2 373 1 0 23 c0 21 -6 25 -53 31 -122 18 -122 17 -122 423 l0 325
83 0 c153 0 196 -28 240 -156 14 -43 43 -165 62 -270 42 -226 55 -269 100
-321 49 -57 119 -85 231 -91 120 -6 205 18 287 83 61 48 67 59 40 74 -12 6
-26 3 -52 -15 -65 -44 -120 -25 -149 51 -6 17 -30 111 -52 210 -22 99 -52 203
-65 231 -49 101 -150 168 -293 198 -77 15 -102 26 -61 26 39 0 166 38 222 67
76 38 115 71 164 137 88 119 108 289 48 411 -51 104 -163 183 -323 227 -72 20
-108 22 -560 27 -266 3 -486 4 -488 2z m810 -65 c131 -40 191 -159 189 -381 0
-123 -17 -201 -57 -269 -49 -83 -119 -115 -273 -123 l-103 -6 0 349 c0 312 2
353 18 384 9 19 28 40 42 47 34 17 126 16 184 -1z"/>
<path d="M2640 3240 c0 -23 5 -26 63 -37 84 -16 103 -39 112 -135 3 -40 5
-363 3 -718 -2 -525 -6 -650 -17 -672 -16 -31 -75 -58 -126 -58 -31 0 -35 -3
-35 -27 l0 -28 372 1 373 2 0 23 c0 21 -6 25 -55 32 -63 9 -97 28 -110 63 -6
14 -10 170 -10 356 l0 330 105 -4 c86 -3 109 -7 132 -24 69 -51 94 -120 148
-414 20 -107 46 -216 56 -241 43 -98 131 -150 269 -157 138 -7 235 26 318 108
32 32 32 33 12 47 -18 13 -23 12 -51 -11 -56 -48 -120 -27 -148 47 -6 15 -29
109 -52 210 -22 100 -52 205 -65 233 -47 100 -148 167 -294 198 -76 15 -100
26 -59 26 43 0 172 40 233 73 85 45 152 116 195 206 33 71 36 83 36 171 0 83
-4 103 -29 157 -51 111 -161 190 -325 235 -69 20 -107 22 -431 25 -195 2 -415
4 -488 6 l-132 2 0 -25z m819 -46 c67 -20 121 -73 152 -150 21 -54 24 -74 24
-224 0 -150 -3 -170 -24 -224 -29 -73 -83 -128 -147 -150 -27 -9 -95 -20 -151
-23 l-103 -6 0 352 c0 387 3 409 58 430 41 15 133 13 191 -5z"/>
</g>
</svg>
